# box.obj
o RectangularPrism
g RectangularPrism

# Vértices (v)
v -0.5000  0.0000  0.5000
v -0.5000  0.0000 -0.5000
v  0.5000  0.0000 -0.5000
v  0.5000  0.0000  0.5000
v -0.5000  1.0000  0.5000
v  0.5000  1.0000  0.5000
v  0.5000  1.0000 -0.5000
v -0.5000  1.0000 -0.5000

# Coordenadas de textura (vt)
# Primeiro conjunto para a base
vt 0.0 0.0
vt 0.0 1.0
vt 1.0 1.0
vt 1.0 0.0

# Segundo conjunto para o topo
vt 0.0 0.0
vt 0.0 1.0
vt 1.0 1.0
vt 1.0 0.0

# Normais (vn)
# 1: Cima, 2: Baixo, 3: Esquerda, 4: Traseira, 5: Direita, 6: Frontal
vn 0.0  1.0  0.0   # vn1: Superior
vn 0.0 -1.0  0.0   # vn2: Inferior
vn -1.0  0.0  0.0   # vn3: Esquerda
vn 0.0  0.0 -1.0   # vn4: Traseira
vn 1.0  0.0  0.0    # vn5: Direita
vn 0.0  0.0  1.0    # vn6: Frontal

# Faces
# Sintaxe: f v/vt/vn

# Face inferior (vn=2)
f 1/1/2 2/2/2 3/3/2
f 1/1/2 3/3/2 4/4/2

# Face superior (vn=1)
f 5/5/1 6/6/1 7/7/1
f 5/5/1 7/7/1 8/8/1

# Face esquerda (vn=3)
f 1/1/3 5/5/3 8/8/3
f 1/1/3 8/8/3 2/2/3

# Face traseira (vn=4)
f 2/2/4 8/8/4 7/7/4
f 2/2/4 7/7/4 3/3/4

# Face direita (vn=5)
f 3/3/5 7/7/5 6/6/5
f 3/3/5 6/6/5 4/4/5

# Face frontal (vn=6)
f 4/4/6 6/6/6 5/5/6
f 4/4/6 5/5/6 1/1/6
